<svg width="1000" height="161" viewBox="0 0 1000 161" fill="none" xmlns="http://www.w3.org/2000/svg">
<g clip-path="url(#clip0_1_2)">
<mask id="mask0_1_2" style="mask-type:luminance" maskUnits="userSpaceOnUse" x="0" y="0" width="1000" height="161">
<path d="M0 0H1000V160.76H0V0Z" fill="white"/>
</mask>
<g mask="url(#mask0_1_2)">
<path d="M471.108 30.5167C471.108 13.9383 483.974 1.73161 500.057 1.73161C516.141 1.73161 529.007 13.9383 529.007 30.5167C529.007 47.0951 516.141 59.3014 500.057 59.3014C483.974 59.3014 471.108 47.0951 471.108 30.5167ZM519.852 30.5167C519.852 18.6394 511.687 9.73248 500.057 9.73248C488.428 9.73248 480.263 18.6394 480.263 30.5167C480.263 42.3932 488.428 51.3009 500.057 51.3009C511.687 51.3009 519.852 42.3932 519.852 30.5167Z" fill="white"/>
<path d="M535.024 30.3516H543.273V33.5684C544.84 31.0942 547.726 29.609 552.015 29.609C559.356 29.609 565.294 35.8775 565.294 44.4558C565.294 53.0333 559.356 59.3014 552.015 59.3014C547.726 59.3014 544.84 57.8162 543.273 55.3424V76.0441H535.024V30.3516ZM556.799 44.4558C556.799 39.8368 554.077 36.8673 549.87 36.8673C545.665 36.8673 543.107 39.8368 543.107 44.4558C543.107 49.074 545.665 52.0435 549.87 52.0435C554.077 52.0435 556.799 49.074 556.799 44.4558Z" fill="white"/>
<path d="M585.499 52.3737C589.128 52.3737 591.272 50.9715 592.839 49.6514L597.788 54.5998C595.231 57.3217 591.519 59.3014 585.664 59.3014C575.849 59.3014 569.58 53.0333 569.58 44.4558C569.58 35.8775 576.261 29.609 584.838 29.609C594.736 29.609 600.345 37.4448 599.685 47.2594H578.158C578.983 50.394 581.374 52.3737 585.499 52.3737ZM591.025 41.4863C590.447 38.5997 588.385 36.5379 584.838 36.5379C581.457 36.5379 579.065 38.2695 578.241 41.4863H591.025Z" fill="white"/>
<path d="M605.043 30.3516H613.291V33.9807C615.106 30.9291 618.157 29.609 622.116 29.609C628.384 29.609 632.755 33.9807 632.755 41.4863V58.5588H624.508V42.0638C624.508 38.9291 622.858 37.0324 619.477 37.0324C615.518 37.0324 613.291 39.1772 613.291 43.383V58.5588H605.043V30.3516Z" fill="white"/>
<path d="M652.298 2.4742H661.618L677.619 40.1662L693.125 2.4742H702.033L677.784 59.3835H677.289L652.298 2.4742Z" fill="white"/>
<path d="M701.617 17.4023C701.617 14.4336 704.091 12.2067 706.813 12.2067C709.617 12.2067 712.009 14.4336 712.009 17.4023C712.009 20.3719 709.617 22.5988 706.813 22.5988C704.091 22.5988 701.617 20.3719 701.617 17.4023ZM702.689 30.3516H710.937V58.5588H702.689V30.3516Z" fill="white"/>
<path d="M715.224 53.693L720.42 49.074C722.4 51.466 724.957 52.621 727.761 52.621C730.73 52.621 731.885 51.7133 731.885 50.5591C731.885 49.2391 731.06 48.6616 726.441 47.6718C720.585 46.4347 717.121 43.7132 717.121 38.5168C717.121 33.2381 721.163 29.609 727.513 29.609C731.967 29.609 735.102 31.0112 737.906 33.4854L733.534 38.5168C732.132 37.1145 730.07 36.2077 727.761 36.2077C725.617 36.2077 724.544 37.1145 724.544 38.1873C724.544 39.5896 725.616 40.0841 730.318 40.991C736.668 42.2289 739.72 45.3627 739.72 49.9817C739.72 55.6726 735.679 59.3014 727.926 59.3014C723.224 59.3014 718.605 57.4038 715.224 53.693Z" fill="white"/>
<path d="M744.419 47.4245V30.3516H752.668V46.847C752.668 49.9817 754.317 51.8784 757.699 51.8784C761.657 51.8784 763.884 49.7344 763.884 45.5278V30.3516H772.133V58.5588H763.884V54.93C762.07 57.9813 759.018 59.3014 755.06 59.3014C748.791 59.3014 744.419 54.93 744.419 47.4245Z" fill="white"/>
<path d="M790.275 36.5379C787.305 36.5379 785.161 37.692 783.512 39.5895L778.481 34.9706C781.614 31.4236 785.739 29.609 790.769 29.609C798.77 29.609 803.719 33.7335 803.719 42.0637V58.5588H795.471V56.002C793.574 58.2286 790.852 59.3014 787.553 59.3014C781.862 59.3014 777.078 56.497 777.078 49.8987C777.078 44.3728 781.945 41.6514 788.13 41.6514H795.471C795.388 37.8571 793.244 36.5379 790.275 36.5379ZM788.542 47.2594C786.399 47.2594 785.244 48.3322 785.244 49.9817C785.244 51.5482 786.316 52.7031 789.038 52.7031C792.749 52.7031 795.471 50.7234 795.471 48.4143V47.2594H788.542Z" fill="white"/>
<path d="M810.232 0H818.479V58.5588H810.232V0Z" fill="white"/>
<path d="M824.334 17.4023C824.334 14.4336 826.808 12.2067 829.53 12.2067C832.334 12.2067 834.726 14.4336 834.726 17.4023C834.726 20.3719 832.334 22.5988 829.53 22.5988C826.808 22.5988 824.334 20.3719 824.334 17.4023ZM825.406 30.3516H833.654V58.5588H825.406V30.3516Z" fill="white"/>
<path d="M838.354 58.2286L851.467 37.1975H840.25V30.3516H864.087V30.6818L851.055 51.7133H863.344V58.5588H838.354V58.2286Z" fill="white"/>
<path d="M880.086 36.5379C877.117 36.5379 874.973 37.692 873.323 39.5895L868.292 34.9706C871.426 31.4236 875.55 29.609 880.581 29.609C888.582 29.609 893.53 33.7335 893.53 42.0637V58.5588H885.282V56.002C883.385 58.2286 880.664 59.3014 877.364 59.3014C871.673 59.3014 866.89 56.497 866.89 49.8987C866.89 44.3728 871.756 41.6514 877.941 41.6514H885.282C885.2 37.8571 883.055 36.5379 880.086 36.5379ZM878.354 47.2594C876.21 47.2594 875.055 48.3322 875.055 49.9817C875.055 51.5482 876.127 52.7031 878.849 52.7031C882.56 52.7031 885.282 50.7234 885.282 48.4143V47.2594H878.354Z" fill="white"/>
<path d="M898.146 37.1975V30.3516H901.445V11.9586H909.693V30.3516H916.291V37.1975H909.693V48.6616C909.693 51.5482 910.6 52.2086 912.085 52.2086C913.075 52.2086 913.899 51.7133 914.559 51.2188L917.776 56.9915C916.374 58.1464 914.147 59.3014 910.683 59.3014C905.322 59.3014 901.445 56.6621 901.445 48.8267V37.1975H898.146Z" fill="white"/>
<path d="M921.073 17.4023C921.073 14.4336 923.547 12.2067 926.269 12.2067C929.073 12.2067 931.465 14.4336 931.465 17.4023C931.465 20.3719 929.073 22.5988 926.269 22.5988C923.547 22.5988 921.073 20.3719 921.073 17.4023ZM922.145 30.3516H930.392V58.5588H922.145V30.3516Z" fill="white"/>
<path d="M936 44.4558C936 35.8775 942.762 29.609 951.423 29.609C960.083 29.609 966.846 35.8775 966.846 44.4558C966.846 53.0333 960.083 59.3014 951.423 59.3014C942.762 59.3014 936 53.0333 936 44.4558ZM958.351 44.4558C958.351 39.919 955.712 36.62 951.423 36.62C947.134 36.62 944.495 39.919 944.495 44.4558C944.495 48.9918 947.134 52.2907 951.423 52.2907C955.712 52.2907 958.351 48.9918 958.351 44.4558Z" fill="white"/>
<path d="M972.287 30.3516H980.535V33.9807C982.35 30.9291 985.401 29.609 989.361 29.609C995.628 29.609 1000 33.9807 1000 41.4863V58.5588H991.752V42.0638C991.752 38.9291 990.103 37.0324 986.721 37.0324C982.762 37.0324 980.535 39.1772 980.535 43.383V58.5588H972.287V30.3516Z" fill="white"/>
<path d="M473.17 115.233C473.252 98.489 485.542 86.5304 501.377 86.5304C510.12 86.5304 517.873 90.3238 523.151 96.7574L521.172 98.2418C516.471 92.3857 509.543 88.9217 501.377 88.9217C486.861 88.9217 475.892 100.139 475.892 115.233C475.892 130.326 487.026 141.543 501.872 141.543C510.697 141.543 518.121 137.584 522.822 131.316L524.801 132.8C519.522 139.729 511.275 143.935 501.872 143.935C485.706 143.935 473.087 131.975 473.17 115.233Z" fill="white"/>
<path d="M530.241 130.161C530.241 122.408 536.262 116.387 543.768 116.387C551.273 116.387 557.294 122.408 557.294 130.161C557.294 137.914 551.273 143.935 543.768 143.935C536.262 143.935 530.241 137.914 530.241 130.161ZM554.737 130.161C554.737 123.563 550.118 118.531 543.768 118.531C537.417 118.531 532.798 123.563 532.798 130.161C532.798 136.759 537.417 141.791 543.768 141.791C550.118 141.791 554.737 136.759 554.737 130.161Z" fill="white"/>
<path d="M564.797 84.7158H567.272V143.275H564.797V84.7158Z" fill="white"/>
<path d="M577.25 84.7158H579.724V143.275H577.25V84.7158Z" fill="white"/>
<path d="M607.023 126.614C607.023 120.841 604.218 118.531 599.682 118.531C595.888 118.531 593.331 119.934 591.352 123.067L589.537 121.83C592.012 118.119 595.228 116.387 599.682 116.387C605.621 116.387 609.497 119.603 609.497 126.449V143.275H607.023V139.811C605.291 142.203 602.157 143.935 598.033 143.935C592.342 143.935 587.805 141.13 587.805 135.604C587.805 130.079 592.671 127.604 598.115 127.604H607.023V126.614ZM598.445 129.748C594.156 129.748 590.28 131.233 590.28 135.604C590.28 139.893 593.661 141.708 598.362 141.708C602.652 141.708 607.023 139.481 607.023 134.532V129.748H598.445Z" fill="white"/>
<path d="M621.041 137.584V143.275H618.567V84.7158H621.041V122.738C623.268 118.614 627.062 116.387 631.764 116.387C639.516 116.387 645.207 122.408 645.207 130.161C645.207 137.914 639.516 143.935 631.764 143.935C627.062 143.935 623.268 141.708 621.041 137.584ZM642.651 130.161C642.651 123.481 638.197 118.614 631.764 118.614C625.33 118.614 620.876 123.481 620.876 130.161C620.876 136.841 625.33 141.708 631.764 141.708C638.197 141.708 642.651 136.841 642.651 130.161Z" fill="white"/>
<path d="M650.236 130.161C650.236 122.408 656.257 116.387 663.763 116.387C671.268 116.387 677.289 122.408 677.289 130.161C677.289 137.914 671.268 143.935 663.763 143.935C656.257 143.935 650.236 137.914 650.236 130.161ZM674.732 130.161C674.732 123.563 670.113 118.531 663.763 118.531C657.412 118.531 652.793 123.563 652.793 130.161C652.793 136.759 657.412 141.791 663.763 141.791C670.113 141.791 674.732 136.759 674.732 130.161Z" fill="white"/>
<path d="M684.545 117.047H687.02V121.666C688.669 118.449 691.473 116.387 694.855 116.387C696.669 116.387 697.577 116.552 698.896 117.294L697.989 119.356C697.164 118.862 696.257 118.697 694.69 118.697C690.566 118.697 687.02 122.738 687.02 128.099V143.275H684.545V117.047Z" fill="white"/>
<path d="M720.917 126.614C720.917 120.841 718.112 118.531 713.576 118.531C709.782 118.531 707.225 119.934 705.246 123.067L703.431 121.83C705.906 118.119 709.122 116.387 713.576 116.387C719.515 116.387 723.391 119.603 723.391 126.449V143.275H720.917V139.811C719.185 142.203 716.051 143.935 711.927 143.935C706.236 143.935 701.699 141.13 701.699 135.604C701.699 130.079 706.565 127.604 712.009 127.604H720.917V126.614ZM712.339 129.748C708.05 129.748 704.174 131.233 704.174 135.604C704.174 139.893 707.555 141.708 712.256 141.708C716.546 141.708 720.917 139.481 720.917 134.532V129.748H712.339Z" fill="white"/>
<path d="M730.069 119.191V117.047H733.781V101.293H736.255V117.047H743.1V119.191H736.255V137.584C736.255 140.058 737.162 141.708 739.554 141.708C740.874 141.708 742.111 141.048 742.936 140.388L744.173 142.203C743.018 143.275 741.286 143.935 739.554 143.935C735.925 143.935 733.781 141.543 733.781 137.914V119.191H730.069Z" fill="white"/>
<path d="M750.356 103.273C750.356 102.118 751.346 101.211 752.418 101.211C753.49 101.211 754.48 102.118 754.48 103.273C754.48 104.428 753.49 105.335 752.418 105.335C751.346 105.335 750.356 104.428 750.356 103.273ZM751.181 117.047H753.655V143.275H751.181V117.047Z" fill="white"/>
<path d="M761.16 130.161C761.16 122.408 767.18 116.387 774.686 116.387C782.192 116.387 788.212 122.408 788.212 130.161C788.212 137.914 782.192 143.935 774.686 143.935C767.18 143.935 761.16 137.914 761.16 130.161ZM785.656 130.161C785.656 123.563 781.037 118.531 774.686 118.531C768.335 118.531 763.716 123.563 763.716 130.161C763.716 136.759 768.335 141.791 774.686 141.791C781.037 141.791 785.656 136.759 785.656 130.161Z" fill="white"/>
<path d="M795.468 117.047H797.942V121.995C799.674 118.531 803.386 116.387 807.675 116.387C813.366 116.387 817.902 119.686 817.902 126.945V143.275H815.427V127.357C815.427 121.254 812.541 118.614 807.592 118.614C801.984 118.614 797.942 122.326 797.942 128.346V143.275H795.468V117.047Z" fill="white"/>
<path d="M841.487 131.728C844.703 137.831 850.477 141.543 857.735 141.543C866.725 141.543 871.839 136.841 871.839 129.913C871.839 123.067 868.21 119.439 859.962 115.48L854.848 113.006C846.93 109.129 842.642 106.078 842.642 98.9014C842.642 91.3959 848.662 86.5304 856.168 86.5304C862.931 86.5304 867.467 89.0046 870.849 94.4475L868.87 95.6025C865.983 90.9835 862.024 88.8395 856.168 88.8395C849.735 88.8395 845.198 93.1283 845.198 98.9014C845.198 105.005 848.58 107.232 856.003 110.861L861.034 113.336C870.437 117.954 874.396 122.326 874.396 129.913C874.396 138.244 868.21 143.935 857.735 143.935C848.91 143.935 842.724 139.481 839.26 132.965L841.487 131.728Z" fill="white"/>
<path d="M882.971 117.047H885.445V122.738C887.672 118.614 891.466 116.387 896.167 116.387C903.92 116.387 909.611 122.408 909.611 130.161C909.611 137.914 903.92 143.935 896.167 143.935C891.466 143.935 887.672 141.708 885.445 137.584V160.76H882.971V117.047ZM907.055 130.161C907.055 123.481 902.601 118.614 896.167 118.614C889.734 118.614 885.28 123.481 885.28 130.161C885.28 136.841 889.734 141.708 896.167 141.708C902.601 141.708 907.055 136.841 907.055 130.161Z" fill="white"/>
<path d="M934.435 126.614C934.435 120.841 931.631 118.531 927.095 118.531C923.301 118.531 920.744 119.934 918.764 123.067L916.95 121.83C919.424 118.119 922.641 116.387 927.095 116.387C933.033 116.387 936.91 119.603 936.91 126.449V143.275H934.435V139.811C932.704 142.203 929.569 143.935 925.446 143.935C919.755 143.935 915.218 141.13 915.218 135.604C915.218 130.079 920.084 127.604 925.528 127.604H934.435V126.614ZM925.858 129.748C921.568 129.748 917.693 131.233 917.693 135.604C917.693 139.893 921.074 141.708 925.775 141.708C930.064 141.708 934.435 139.481 934.435 134.532V129.748H925.858Z" fill="white"/>
<path d="M943.752 130.161C943.752 122.408 949.526 116.387 957.031 116.387C961.073 116.387 964.289 117.625 966.847 120.346L965.114 121.83C963.135 119.603 960.495 118.531 957.031 118.531C950.681 118.531 946.309 123.563 946.309 130.161C946.309 136.759 950.681 141.791 956.949 141.791C960.825 141.791 963.96 140.306 965.939 137.996L967.671 139.481C965.197 142.45 961.402 143.935 956.949 143.935C949.526 143.935 943.752 137.914 943.752 130.161Z" fill="white"/>
<path d="M985.732 141.791C990.433 141.791 993.072 140.141 995.134 137.584L996.783 139.068C994.392 142.12 990.763 143.935 985.732 143.935C977.648 143.935 971.958 137.914 971.958 130.161C971.958 122.408 977.897 116.387 985.155 116.387C992.908 116.387 997.938 122.243 998.103 130.656H974.515C974.762 137.584 979.546 141.791 985.732 141.791ZM995.546 128.511C994.887 122.903 991.671 118.531 985.155 118.531C979.381 118.531 975.256 122.738 974.598 128.511H995.546Z" fill="white"/>
<path d="M121.611 98.8943H146.931V101.193H124.233V120.315H144.824V122.678H124.233V142.375H121.611V98.8943Z" fill="white"/>
<path d="M151.345 129.266C151.345 121.784 157.354 115.71 164.964 115.71C172.574 115.71 178.456 121.784 178.456 129.266C178.456 136.748 172.574 142.886 164.964 142.886C157.354 142.886 151.345 136.748 151.345 129.266ZM175.898 129.266C175.898 122.81 171.485 117.949 164.964 117.949C158.444 117.949 153.903 122.81 153.903 129.266C153.903 135.723 158.444 140.647 164.964 140.647C171.485 140.647 175.898 135.723 175.898 129.266Z" fill="white"/>
<path d="M185.308 132.718V116.285H187.802V132.335C187.802 137.642 190.296 140.647 195.284 140.647C200.911 140.647 204.874 136.876 204.874 130.866V116.289H207.368V142.379H204.874L204.937 136.625C203.21 140.523 199.63 142.954 195.025 142.954C189.211 142.95 185.308 139.115 185.308 132.718Z" fill="white"/>
<path d="M214.144 116.285H216.638L216.574 122.103C218.302 118.141 221.945 115.71 226.55 115.71C232.368 115.71 236.271 119.609 236.271 126.07V142.375H233.777V126.517C233.777 121.146 231.283 118.013 226.231 118.013C220.604 118.013 216.638 121.72 216.638 127.798V142.375H214.144V116.285Z" fill="white"/>
<path d="M243.055 129.266C243.055 121.592 248.49 115.71 255.972 115.71C261.28 115.71 265.115 118.588 267.034 122.486V96.2047H269.528V142.375H267.034L267.162 135.851C265.306 139.881 261.02 142.886 255.972 142.886C248.49 142.886 243.055 136.94 243.055 129.266ZM267.226 129.266C267.226 122.81 262.876 117.949 256.292 117.949C249.831 117.949 245.677 122.81 245.677 129.266C245.677 135.723 249.835 140.647 256.292 140.647C262.88 140.647 267.226 135.723 267.226 129.266Z" fill="white"/>
<path d="M294.976 126.006C294.976 120.12 292.29 117.885 288.004 117.885C284.042 117.885 281.356 119.549 279.5 122.363L277.713 121.082C279.883 117.694 283.595 115.71 288.072 115.71C293.443 115.71 297.47 118.971 297.47 125.751V142.375H294.976L295.103 138.349C293.439 140.843 290.562 142.886 286.085 142.886C280.139 142.886 276.236 140.136 276.236 134.893C276.236 129.713 280.777 127.283 285.765 127.283H294.972V126.006H294.976ZM286.089 129.33C282.126 129.33 278.734 130.866 278.734 134.829C278.734 138.792 281.356 140.647 286.344 140.647C290.694 140.647 294.98 138.089 294.98 134.063V129.33H286.089Z" fill="white"/>
<path d="M308.583 135.467V118.396H304.493V116.285H308.583V107.143H311.077V116.285H318.623V118.396H311.077V135.404C311.077 139.239 312.418 140.647 314.597 140.647C316.899 140.647 317.793 139.753 318.755 138.728L320.351 140.264C319.074 141.733 317.538 142.886 314.597 142.886C311.269 142.886 308.583 140.775 308.583 135.467Z" fill="white"/>
<path d="M327.135 105.032C327.135 103.819 328.161 102.921 329.246 102.921C330.336 102.921 331.357 103.819 331.357 105.032C331.357 106.309 330.332 107.143 329.246 107.143C328.161 107.143 327.135 106.309 327.135 105.032ZM328.033 116.285H330.527V142.375H328.033V116.285Z" fill="white"/>
<path d="M338.033 129.266C338.033 121.784 344.043 115.71 351.653 115.71C359.263 115.71 365.145 121.784 365.145 129.266C365.145 136.748 359.263 142.886 351.653 142.886C344.043 142.886 338.033 136.748 338.033 129.266ZM362.587 129.266C362.587 122.81 358.174 117.949 351.653 117.949C345.129 117.949 340.591 122.81 340.591 129.266C340.591 135.723 345.129 140.647 351.653 140.647C358.174 140.647 362.587 135.723 362.587 129.266Z" fill="white"/>
<path d="M372.252 116.285H374.746L374.682 122.103C376.41 118.141 380.054 115.71 384.659 115.71C390.477 115.71 394.38 119.609 394.38 126.07V142.375H391.886V126.517C391.886 121.146 389.391 118.013 384.34 118.013C378.713 118.013 374.75 121.72 374.75 127.798V142.375H372.256V116.285H372.252Z" fill="white"/>
<path d="M121.611 47.7837C121.611 31.4385 134.173 19.6824 149.872 19.6824C165.495 19.6824 178.053 31.4385 178.053 47.7837C178.053 64.1289 165.491 75.885 149.872 75.885C134.173 75.885 121.611 64.1289 121.611 47.7837ZM169.358 47.7837C169.358 36.1074 161.305 27.3323 149.872 27.3323C138.439 27.3323 130.307 36.1074 130.307 47.7837C130.307 59.46 138.439 68.2351 149.872 68.2351C161.305 68.2351 169.358 59.46 169.358 47.7837Z" fill="white"/>
<path d="M186.908 41.343H195.121L194.881 47.6241C197.052 43.438 201.083 40.6207 206.877 40.6207C215.572 40.6207 222.579 47.9473 222.579 58.175C222.579 68.3987 215.492 75.889 206.717 75.889C201.083 75.889 197.052 73.1515 195.121 69.3684V92.2381H186.908V41.343ZM214.203 58.171C214.203 52.0496 210.5 47.8635 204.622 47.8635C198.664 47.8635 194.801 52.0496 194.801 58.171C194.801 64.5319 198.664 68.718 204.622 68.718C210.5 68.718 214.203 64.5319 214.203 58.171Z" fill="white"/>
<path d="M250.445 69.0412C254.875 69.0412 258.095 67.2694 260.027 65.4178L264.779 70.41C261.639 73.5505 257.289 75.885 250.529 75.885C238.933 75.885 231.447 68.3947 231.447 58.2508C231.447 48.1867 239.34 40.6167 249.484 40.6167C260.996 40.6167 267.521 49.1524 266.958 60.9883H239.743C240.705 65.9007 244.248 69.0412 250.445 69.0412ZM258.738 55.3537C258.011 50.7646 255.194 47.3806 249.56 47.3806C244.328 47.3806 240.705 50.2778 239.735 55.3537H258.738Z" fill="white"/>
<path d="M275.937 41.343H284.069L283.91 47.6241C286.005 43.1946 290.271 40.6207 295.343 40.6207C302.833 40.6207 307.985 45.9361 307.985 55.1143V75.1627H299.852V55.7568C299.852 50.9242 297.597 48.1069 292.845 48.1069C287.529 48.1069 284.069 51.3273 284.069 56.8023V75.1587H275.937V41.343Z" fill="white"/>
<path d="M316.899 66.623L323.823 62.3571C325.754 65.8209 328.009 68.2351 332.035 68.2351C336.625 68.2351 339.605 66.0603 339.605 59.6994V20.4087H348.141V59.863C348.141 70.7332 341.617 75.889 332.439 75.889C324.31 75.885 319.477 71.6989 316.899 66.623Z" fill="white"/>
<path d="M356.857 64.5319L363.86 60.6651C366.438 64.931 369.738 68.3149 376.422 68.3149C381.977 68.3149 385.924 65.338 385.924 60.8287C385.924 56.076 382.703 53.985 376.745 51.3273L373.122 49.7151C365.149 46.1715 360.32 42.1491 360.32 33.6931C360.32 25.5605 366.602 19.7622 375.7 19.7622C382.947 19.7622 387.859 22.4997 391.159 28.3778L384.475 32.484C382.38 28.8606 379.966 27.1686 375.7 27.1686C371.354 27.1686 368.613 29.8263 368.613 33.5295C368.613 37.6358 370.947 39.4874 376.502 41.9017L380.046 43.5098C389.387 47.6201 394.38 51.9658 394.38 60.7409C394.38 70.3222 386.889 75.881 376.586 75.881C366.195 75.885 359.917 70.7332 356.857 64.5319Z" fill="white"/>
<path d="M436.525 0.923233V157.513" stroke="white" stroke-width="0.92323" stroke-miterlimit="10"/>
<path d="M107.026 49.755L54.0397 19.1636L53.6885 18.9601L53.3374 19.1636L0.6345 49.5914L0.35117 49.755L0 49.9585V111.955L0.35117 112.159L53.3374 142.746L53.6885 142.95L54.0397 142.746L106.32 112.562L107.022 112.159L107.377 111.955V49.9585L107.026 49.755ZM48.3851 26.8893L35.4279 49.328H9.51741L48.3851 26.8893ZM33.3009 53.0193L27.2234 63.5463L8.99066 53.0193H33.3009ZM28.5722 68.5823L50.0013 80.9529L28.5722 93.3236L21.4291 80.9529L28.5722 68.5823ZM25.3758 66.7387L19.2982 77.2657L7.14305 56.2117L25.3758 66.7387ZM4.214 58.5142L17.1712 80.9529L4.214 103.392V58.5142ZM19.2982 84.6442L25.3757 95.1712L7.14304 105.694L19.2982 84.6442ZM27.2194 98.3636L33.2969 108.891H8.99066L27.2194 98.3636ZM9.5174 112.578H35.4279L48.3851 135.017L9.5174 112.578ZM51.8409 133.632L39.6858 112.578H51.8409V133.632ZM51.8409 108.891H37.5548L30.4118 96.52L51.8409 84.1493V108.891ZM51.8409 77.7605L30.4118 65.3899L37.5548 53.0193H51.8409V77.7605ZM51.8409 49.328H39.6858L51.8409 28.274V49.328ZM81.9973 66.7387L100.23 56.2117L88.0749 77.2657L81.9973 66.7387ZM85.9439 80.9529L78.8009 93.3236L57.3758 80.9529L78.8009 68.5823L85.9439 80.9529ZM80.1537 63.5463L74.0761 53.0193H98.3864L80.1537 63.5463ZM97.8556 49.328H71.9452L58.9879 26.8893L97.8556 49.328ZM55.5322 28.278L67.6873 49.332H55.5322V28.278ZM55.5322 53.0193H69.8182L76.9613 65.3899L55.5361 77.7605V53.0193H55.5322ZM55.5322 84.1493L76.9573 96.52L69.8142 108.891H55.5282V84.1494L55.5322 84.1493ZM55.5322 112.578H67.6873L55.5322 133.632V112.578ZM58.9879 135.021L71.9412 112.582H97.8516L58.9879 135.021ZM74.0761 108.891L80.1537 98.3636L98.3864 108.891H74.0761ZM81.9973 95.1712L88.0749 84.6442L100.23 105.694L81.9973 95.1712ZM103.159 103.396L90.2018 80.9569L103.159 58.5182V103.396Z" fill="url(#paint0_linear_1_2)"/>
</g>
</g>
<defs>
<linearGradient id="paint0_linear_1_2" x1="11.3451" y1="38.6135" x2="96.032" y2="123.3" gradientUnits="userSpaceOnUse">
<stop offset="0.2145" stop-color="#3273C2"/>
<stop offset="0.7067" stop-color="#8CB938"/>
<stop offset="1" stop-color="#F7E052"/>
</linearGradient>
<clipPath id="clip0_1_2">
<rect width="1000" height="161" fill="white"/>
</clipPath>
</defs>
</svg>
