<svg fill="none" height="161" viewBox="0 0 1000 161" width="1000" xmlns="http://www.w3.org/2000/svg" xmlns:xlink="http://www.w3.org/1999/xlink"><linearGradient id="a" gradientUnits="userSpaceOnUse" x1="11.3451" x2="96.032" y1="38.6135" y2="123.3"><stop offset=".2145" stop-color="#3273c2"/><stop offset=".7067" stop-color="#8cb938"/><stop offset="1" stop-color="#f7e052"/></linearGradient><clipPath id="b"><path d="m0 0h1000v160.76h-1000z"/></clipPath><g clip-path="url(#b)"><path d="m471.108 30.5167c0-16.5784 12.866-28.78509 28.949-28.78509 16.084 0 28.95 12.20669 28.95 28.78509s-12.866 28.7847-28.95 28.7847c-16.083 0-28.949-12.2063-28.949-28.7847zm48.744 0c0-11.8773-8.165-20.78422-19.795-20.78422-11.629 0-19.794 8.90692-19.794 20.78422 0 11.8765 8.165 20.7842 19.794 20.7842 11.63 0 19.795-8.9077 19.795-20.7842z" fill="#55565b"/><path d="m535.024 30.3516h8.249v3.2168c1.567-2.4742 4.453-3.9594 8.742-3.9594 7.341 0 13.279 6.2685 13.279 14.8468 0 8.5775-5.938 14.8456-13.279 14.8456-4.289 0-7.175-1.4852-8.742-3.959v20.7017h-8.249zm21.775 14.1042c0-4.619-2.722-7.5885-6.929-7.5885-4.205 0-6.763 2.9695-6.763 7.5885 0 4.6182 2.558 7.5877 6.763 7.5877 4.207 0 6.929-2.9695 6.929-7.5877z" fill="#55565b"/><path d="m585.499 52.3737c3.629 0 5.773-1.4022 7.34-2.7223l4.949 4.9484c-2.557 2.7219-6.269 4.7016-12.124 4.7016-9.815 0-16.084-6.2681-16.084-14.8456 0-8.5783 6.681-14.8468 15.258-14.8468 9.898 0 15.507 7.8358 14.847 17.6504h-21.527c.825 3.1346 3.216 5.1143 7.341 5.1143zm5.526-10.8874c-.578-2.8866-2.64-4.9484-6.187-4.9484-3.381 0-5.773 1.7316-6.597 4.9484z" fill="#55565b"/><path d="m605.043 30.3516h8.248v3.6291c1.815-3.0516 4.866-4.3717 8.825-4.3717 6.268 0 10.639 4.3717 10.639 11.8773v17.0725h-8.247v-16.495c0-3.1347-1.65-5.0314-5.031-5.0314-3.959 0-6.186 2.1448-6.186 6.3506v15.1758h-8.248z" fill="#55565b"/><path d="m652.298 2.4742h9.32l16.001 37.692 15.506-37.692h8.908l-24.249 56.9093h-.495z" fill="#55565b"/><path d="m701.617 17.4023c0-2.9687 2.474-5.1956 5.196-5.1956 2.804 0 5.196 2.2269 5.196 5.1956 0 2.9696-2.392 5.1965-5.196 5.1965-2.722 0-5.196-2.2269-5.196-5.1965zm1.072 12.9493h8.248v28.2072h-8.248z" fill="#55565b"/><path d="m715.224 53.693 5.196-4.619c1.98 2.392 4.537 3.547 7.341 3.547 2.969 0 4.124-.9077 4.124-2.0619 0-1.32-.825-1.8975-5.444-2.8873-5.856-1.2371-9.32-3.9586-9.32-9.155 0-5.2787 4.042-8.9078 10.392-8.9078 4.454 0 7.589 1.4022 10.393 3.8764l-4.372 5.0314c-1.402-1.4023-3.464-2.3091-5.773-2.3091-2.144 0-3.217.9068-3.217 1.9796 0 1.4023 1.072 1.8968 5.774 2.8037 6.35 1.2379 9.402 4.3717 9.402 8.9907 0 5.6909-4.041 9.3197-11.794 9.3197-4.702 0-9.321-1.8976-12.702-5.6084z" fill="#55565b"/><path d="m744.419 47.4245v-17.0729h8.249v16.4954c0 3.1347 1.649 5.0314 5.031 5.0314 3.958 0 6.185-2.144 6.185-6.3506v-15.1762h8.249v28.2072h-8.249v-3.6288c-1.814 3.0513-4.866 4.3714-8.824 4.3714-6.269 0-10.641-4.3714-10.641-11.8769z" fill="#55565b"/><path d="m790.275 36.5379c-2.97 0-5.114 1.1541-6.763 3.0516l-5.031-4.6189c3.133-3.547 7.258-5.3616 12.288-5.3616 8.001 0 12.95 4.1245 12.95 12.4547v16.4951h-8.248v-2.5568c-1.897 2.2266-4.619 3.2994-7.918 3.2994-5.691 0-10.475-2.8044-10.475-9.4027 0-5.5259 4.867-8.2473 11.052-8.2473h7.341c-.083-3.7943-2.227-5.1135-5.196-5.1135zm-1.733 10.7215c-2.143 0-3.298 1.0728-3.298 2.7223 0 1.5665 1.072 2.7214 3.794 2.7214 3.711 0 6.433-1.9797 6.433-4.2888v-1.1549z" fill="#55565b"/><path d="m810.232 0h8.247v58.5588h-8.247z" fill="#55565b"/><path d="m824.334 17.4023c0-2.9687 2.474-5.1956 5.196-5.1956 2.804 0 5.196 2.2269 5.196 5.1956 0 2.9696-2.392 5.1965-5.196 5.1965-2.722 0-5.196-2.2269-5.196-5.1965zm1.072 12.9493h8.248v28.2072h-8.248z" fill="#55565b"/><path d="m838.354 58.2286 13.113-21.0311h-11.217v-6.8459h23.837v.3302l-13.032 21.0315h12.289v6.8455h-24.99z" fill="#55565b"/><path d="m880.086 36.5379c-2.969 0-5.113 1.1541-6.763 3.0516l-5.031-4.6189c3.134-3.547 7.258-5.3616 12.289-5.3616 8.001 0 12.949 4.1245 12.949 12.4547v16.4951h-8.248v-2.5568c-1.897 2.2266-4.618 3.2994-7.918 3.2994-5.691 0-10.474-2.8044-10.474-9.4027 0-5.5259 4.866-8.2473 11.051-8.2473h7.341c-.082-3.7943-2.227-5.1135-5.196-5.1135zm-1.732 10.7215c-2.144 0-3.299 1.0728-3.299 2.7223 0 1.5665 1.072 2.7214 3.794 2.7214 3.711 0 6.433-1.9797 6.433-4.2888v-1.1549z" fill="#55565b"/><path d="m898.146 37.1975v-6.8459h3.299v-18.393h8.248v18.393h6.598v6.8459h-6.598v11.4641c0 2.8866.907 3.547 2.392 3.547.99 0 1.814-.4953 2.474-.9898l3.217 5.7727c-1.402 1.1549-3.629 2.3099-7.093 2.3099-5.361 0-9.238-2.6393-9.238-10.4747v-11.6292z" fill="#55565b"/><path d="m921.073 17.4023c0-2.9687 2.474-5.1956 5.196-5.1956 2.804 0 5.196 2.2269 5.196 5.1956 0 2.9696-2.392 5.1965-5.196 5.1965-2.722 0-5.196-2.2269-5.196-5.1965zm1.072 12.9493h8.247v28.2072h-8.247z" fill="#55565b"/><path d="m936 44.4558c0-8.5783 6.762-14.8468 15.423-14.8468 8.66 0 15.423 6.2685 15.423 14.8468 0 8.5775-6.763 14.8456-15.423 14.8456-8.661 0-15.423-6.2681-15.423-14.8456zm22.351 0c0-4.5368-2.639-7.8358-6.928-7.8358s-6.928 3.299-6.928 7.8358c0 4.536 2.639 7.8349 6.928 7.8349s6.928-3.2989 6.928-7.8349z" fill="#55565b"/><path d="m972.287 30.3516h8.248v3.6291c1.815-3.0516 4.866-4.3717 8.826-4.3717 6.267 0 10.639 4.3717 10.639 11.8773v17.0725h-8.248v-16.495c0-3.1347-1.649-5.0314-5.031-5.0314-3.959 0-6.186 2.1448-6.186 6.3506v15.1758h-8.248z" fill="#55565b"/><g fill="#58575d"><path d="m473.17 115.233c.082-16.744 12.372-28.7026 28.207-28.7026 8.743 0 16.496 3.7934 21.774 10.227l-1.979 1.4844c-4.701-5.8561-11.629-9.3201-19.795-9.3201-14.516 0-25.485 11.2173-25.485 26.3113 0 15.093 11.134 26.31 25.98 26.31 8.825 0 16.249-3.959 20.95-10.227l1.979 1.484c-5.279 6.929-13.526 11.135-22.929 11.135-16.166 0-28.785-11.96-28.702-28.702z"/><path d="m530.241 130.161c0-7.753 6.021-13.774 13.527-13.774 7.505 0 13.526 6.021 13.526 13.774s-6.021 13.774-13.526 13.774c-7.506 0-13.527-6.021-13.527-13.774zm24.496 0c0-6.598-4.619-11.63-10.969-11.63-6.351 0-10.97 5.032-10.97 11.63s4.619 11.63 10.97 11.63c6.35 0 10.969-5.032 10.969-11.63z"/><path d="m564.797 84.7158h2.475v58.5592h-2.475z"/><path d="m577.25 84.7158h2.474v58.5592h-2.474z"/><path d="m607.023 126.614c0-5.773-2.805-8.083-7.341-8.083-3.794 0-6.351 1.403-8.33 4.536l-1.815-1.237c2.475-3.711 5.691-5.443 10.145-5.443 5.939 0 9.815 3.216 9.815 10.062v16.826h-2.474v-3.464c-1.732 2.392-4.866 4.124-8.99 4.124-5.691 0-10.228-2.805-10.228-8.331 0-5.525 4.866-8 10.31-8h8.908zm-8.578 3.134c-4.289 0-8.165 1.485-8.165 5.856 0 4.289 3.381 6.104 8.082 6.104 4.29 0 8.661-2.227 8.661-7.176v-4.784z"/><path d="m621.041 137.584v5.691h-2.474v-58.5592h2.474v38.0222c2.227-4.124 6.021-6.351 10.723-6.351 7.752 0 13.443 6.021 13.443 13.774s-5.691 13.774-13.443 13.774c-4.702 0-8.496-2.227-10.723-6.351zm21.61-7.423c0-6.68-4.454-11.547-10.887-11.547-6.434 0-10.888 4.867-10.888 11.547s4.454 11.547 10.888 11.547c6.433 0 10.887-4.867 10.887-11.547z"/><path d="m650.236 130.161c0-7.753 6.021-13.774 13.527-13.774 7.505 0 13.526 6.021 13.526 13.774s-6.021 13.774-13.526 13.774c-7.506 0-13.527-6.021-13.527-13.774zm24.496 0c0-6.598-4.619-11.63-10.969-11.63-6.351 0-10.97 5.032-10.97 11.63s4.619 11.63 10.97 11.63c6.35 0 10.969-5.032 10.969-11.63z"/><path d="m684.545 117.047h2.475v4.619c1.649-3.217 4.453-5.279 7.835-5.279 1.814 0 2.722.165 4.041.907l-.907 2.062c-.825-.494-1.732-.659-3.299-.659-4.124 0-7.67 4.041-7.67 9.402v15.176h-2.475z"/><path d="m720.917 126.614c0-5.773-2.805-8.083-7.341-8.083-3.794 0-6.351 1.403-8.33 4.536l-1.815-1.237c2.475-3.711 5.691-5.443 10.145-5.443 5.939 0 9.815 3.216 9.815 10.062v16.826h-2.474v-3.464c-1.732 2.392-4.866 4.124-8.99 4.124-5.691 0-10.228-2.805-10.228-8.331 0-5.525 4.866-8 10.31-8h8.908zm-8.578 3.134c-4.289 0-8.165 1.485-8.165 5.856 0 4.289 3.381 6.104 8.082 6.104 4.29 0 8.661-2.227 8.661-7.176v-4.784z"/><path d="m730.069 119.191v-2.144h3.712v-15.754h2.474v15.754h6.845v2.144h-6.845v18.393c0 2.474.907 4.124 3.299 4.124 1.32 0 2.557-.66 3.382-1.32l1.237 1.815c-1.155 1.072-2.887 1.732-4.619 1.732-3.629 0-5.773-2.392-5.773-6.021v-18.723z"/><path d="m750.356 103.273c0-1.155.99-2.062 2.062-2.062s2.062.907 2.062 2.062-.99 2.062-2.062 2.062-2.062-.907-2.062-2.062zm.825 13.774h2.474v26.228h-2.474z"/><path d="m761.16 130.161c0-7.753 6.02-13.774 13.526-13.774s13.526 6.021 13.526 13.774-6.02 13.774-13.526 13.774-13.526-6.021-13.526-13.774zm24.496 0c0-6.598-4.619-11.63-10.97-11.63s-10.97 5.032-10.97 11.63 4.619 11.63 10.97 11.63 10.97-5.032 10.97-11.63z"/><path d="m795.468 117.047h2.474v4.948c1.732-3.464 5.444-5.608 9.733-5.608 5.691 0 10.227 3.299 10.227 10.558v16.33h-2.475v-15.918c0-6.103-2.886-8.743-7.835-8.743-5.608 0-9.65 3.712-9.65 9.732v14.929h-2.474z"/><path d="m841.487 131.728c3.216 6.103 8.99 9.815 16.248 9.815 8.99 0 14.104-4.702 14.104-11.63 0-6.846-3.629-10.474-11.877-14.433l-5.114-2.474c-7.918-3.877-12.206-6.928-12.206-14.1046 0-7.5055 6.02-12.371 13.526-12.371 6.763 0 11.299 2.4742 14.681 7.9171l-1.979 1.155c-2.887-4.619-6.846-6.763-12.702-6.763-6.433 0-10.97 4.2888-10.97 10.0619 0 6.1036 3.382 8.3306 10.805 11.9596l5.031 2.475c9.403 4.618 13.362 8.99 13.362 16.577 0 8.331-6.186 14.022-16.661 14.022-8.825 0-15.011-4.454-18.475-10.97z"/><path d="m882.971 117.047h2.474v5.691c2.227-4.124 6.021-6.351 10.722-6.351 7.753 0 13.444 6.021 13.444 13.774s-5.691 13.774-13.444 13.774c-4.701 0-8.495-2.227-10.722-6.351v23.176h-2.474zm24.084 13.114c0-6.68-4.454-11.547-10.888-11.547-6.433 0-10.887 4.867-10.887 11.547s4.454 11.547 10.887 11.547c6.434 0 10.888-4.867 10.888-11.547z"/><path d="m934.435 126.614c0-5.773-2.804-8.083-7.34-8.083-3.794 0-6.351 1.403-8.331 4.536l-1.814-1.237c2.474-3.711 5.691-5.443 10.145-5.443 5.938 0 9.815 3.216 9.815 10.062v16.826h-2.475v-3.464c-1.731 2.392-4.866 4.124-8.989 4.124-5.691 0-10.228-2.805-10.228-8.331 0-5.525 4.866-8 10.31-8h8.907zm-8.577 3.134c-4.29 0-8.165 1.485-8.165 5.856 0 4.289 3.381 6.104 8.082 6.104 4.289 0 8.66-2.227 8.66-7.176v-4.784z"/><path d="m943.752 130.161c0-7.753 5.774-13.774 13.279-13.774 4.042 0 7.258 1.238 9.816 3.959l-1.733 1.484c-1.979-2.227-4.619-3.299-8.083-3.299-6.35 0-10.722 5.032-10.722 11.63s4.372 11.63 10.64 11.63c3.876 0 7.011-1.485 8.99-3.795l1.732 1.485c-2.474 2.969-6.269 4.454-10.722 4.454-7.423 0-13.197-6.021-13.197-13.774z"/><path d="m985.732 141.791c4.701 0 7.34-1.65 9.402-4.207l1.649 1.484c-2.391 3.052-6.02 4.867-11.051 4.867-8.084 0-13.774-6.021-13.774-13.774s5.939-13.774 13.197-13.774c7.753 0 12.783 5.856 12.948 14.269h-23.588c.247 6.928 5.031 11.135 11.217 11.135zm9.814-13.28c-.659-5.608-3.875-9.98-10.391-9.98-5.774 0-9.899 4.207-10.557 9.98z"/></g><path d="m107.026 49.755-52.9863-30.5914-.3512-.2035-.3511.2035-52.7029 30.4278-.28333.1636-.35117.2035v61.9965l.35117.204 52.98623 30.587.3511.204.3512-.204 52.2803-30.184.702-.403.355-.204v-61.9965zm-58.6409-22.8657-12.9572 22.4387h-25.91049zm-15.0842 26.13-6.0775 10.527-18.23274-10.527zm-4.7287 15.563 21.4291 12.3706-21.4291 12.3707-7.1431-12.3707zm-3.1964-1.8436-6.0776 10.527-12.15515-21.054zm-21.1618-8.2245 12.9572 22.4387-12.9572 22.4391zm15.0842 26.13 6.0775 10.527-18.23266 10.5228zm7.9212 13.7194 6.0775 10.5274h-24.30624zm-17.702 14.2144h25.9105l12.9572 22.439-38.86769-22.439zm42.3235 21.054-12.1551-21.054h12.1551zm0-24.741h-14.2861l-7.143-12.371 21.4291-12.3707zm0-31.1305-21.4291-12.3706 7.143-12.3706h14.2861zm0-28.4325h-12.1551l12.1551-21.054zm30.1564 17.4107 18.2327-10.527-12.1551 21.054zm3.9466 14.2142-7.143 12.3707-21.4251-12.3707 21.4251-12.3706zm-5.7902-17.4066-6.0776-10.527h24.3103zm17.7019-14.2183h-25.9104l-12.9573-22.4387zm-42.3234-21.05 12.1551 21.054h-12.1551zm0 24.7413h14.286l7.1431 12.3706-21.4252 12.3706v-24.7412zm0 31.13 21.4251 12.3707-7.1431 12.371h-14.286v-24.7416h.004zm0 28.4287h12.1551l-12.1551 21.054zm3.4557 22.443 12.9533-22.439h25.9104zm15.0882-26.13 6.0776-10.5274 18.2327 10.5274zm7.9212-13.7198 6.0776-10.527 12.1551 21.0498zm21.1617 8.2248-12.9572-22.4391 12.9572-22.4387z" fill="url(#a)"/><path d="m121.611 98.8943h25.32v2.2987h-22.698v19.122h20.591v2.363h-20.591v19.697h-2.622z" fill="#55575b"/><path d="m151.345 129.266c0-7.482 6.009-13.556 13.619-13.556s13.492 6.074 13.492 13.556-5.882 13.62-13.492 13.62-13.619-6.138-13.619-13.62zm24.553 0c0-6.456-4.413-11.317-10.934-11.317-6.52 0-11.061 4.861-11.061 11.317 0 6.457 4.541 11.381 11.061 11.381 6.521 0 10.934-4.924 10.934-11.381z" fill="#55575b"/><path d="m185.308 132.718v-16.433h2.494v16.05c0 5.307 2.494 8.312 7.482 8.312 5.627 0 9.59-3.771 9.59-9.781v-14.577h2.494v26.09h-2.494l.063-5.754c-1.727 3.898-5.307 6.329-9.912 6.329-5.814-.004-9.717-3.839-9.717-10.236z" fill="#55575b"/><path d="m214.144 116.285h2.494l-.064 5.818c1.728-3.962 5.371-6.393 9.976-6.393 5.818 0 9.721 3.899 9.721 10.36v16.305h-2.494v-15.858c0-5.371-2.494-8.504-7.546-8.504-5.627 0-9.593 3.707-9.593 9.785v14.577h-2.494z" fill="#55575b"/><path d="m243.055 129.266c0-7.674 5.435-13.556 12.917-13.556 5.308 0 9.143 2.878 11.062 6.776v-26.2813h2.494v46.1703h-2.494l.128-6.524c-1.856 4.03-6.142 7.035-11.19 7.035-7.482 0-12.917-5.946-12.917-13.62m24.171 0c0-6.456-4.35-11.317-10.934-11.317-6.461 0-10.615 4.861-10.615 11.317 0 6.457 4.158 11.381 10.615 11.381 6.588 0 10.934-4.924 10.934-11.381z" fill="#55575b"/><path d="m294.976 126.006c0-5.886-2.686-8.121-6.972-8.121-3.962 0-6.648 1.664-8.504 4.478l-1.787-1.281c2.17-3.388 5.882-5.372 10.359-5.372 5.371 0 9.398 3.261 9.398 10.041v16.624h-2.494l.127-4.026c-1.664 2.494-4.541 4.537-9.018 4.537-5.946 0-9.849-2.75-9.849-7.993 0-5.18 4.541-7.61 9.529-7.61h9.207v-1.277zm-8.887 3.324c-3.963 0-7.355 1.536-7.355 5.499s2.622 5.818 7.61 5.818c4.35 0 8.636-2.558 8.636-6.584v-4.733z" fill="#55575b"/><path d="m308.583 135.467v-17.071h-4.09v-2.111h4.09v-9.142h2.494v9.142h7.546v2.111h-7.546v17.008c0 3.835 1.341 5.243 3.52 5.243 2.302 0 3.196-.894 4.158-1.919l1.596 1.536c-1.277 1.469-2.813 2.622-5.754 2.622-3.328 0-6.014-2.111-6.014-7.419" fill="#55575b"/><path d="m327.135 105.032c0-1.213 1.026-2.111 2.111-2.111 1.09 0 2.111.898 2.111 2.111 0 1.277-1.025 2.111-2.111 2.111-1.085 0-2.111-.834-2.111-2.111zm.898 11.253h2.494v26.09h-2.494z" fill="#55575b"/><path d="m338.033 129.266c0-7.482 6.01-13.556 13.62-13.556s13.492 6.074 13.492 13.556-5.882 13.62-13.492 13.62-13.62-6.138-13.62-13.62zm24.554 0c0-6.456-4.413-11.317-10.934-11.317-6.524 0-11.062 4.861-11.062 11.317 0 6.457 4.538 11.381 11.062 11.381 6.521 0 10.934-4.924 10.934-11.381z" fill="#55575b"/><path d="m372.252 116.285h2.494l-.064 5.818c1.728-3.962 5.372-6.393 9.977-6.393 5.818 0 9.721 3.899 9.721 10.36v16.305h-2.494v-15.858c0-5.371-2.495-8.504-7.546-8.504-5.627 0-9.59 3.707-9.59 9.785v14.577h-2.494v-26.09z" fill="#55575b"/><path d="m121.611 47.7837c0-16.3452 12.562-28.1013 28.261-28.1013 15.623 0 28.181 11.7561 28.181 28.1013s-12.562 28.1013-28.181 28.1013c-15.699 0-28.261-11.7561-28.261-28.1013zm47.747 0c0-11.6763-8.053-20.4514-19.486-20.4514s-19.565 8.7751-19.565 20.4514 8.132 20.4514 19.565 20.4514 19.486-8.7751 19.486-20.4514z" fill="#55575b"/><path d="m186.908 41.343h8.213l-.24 6.2811c2.171-4.1861 6.202-7.0034 11.996-7.0034 8.695 0 15.702 7.3266 15.702 17.5543 0 10.2237-7.087 17.714-15.862 17.714-5.634 0-9.665-2.7375-11.596-6.5206v22.8697h-8.213zm27.295 16.828c0-6.1214-3.703-10.3075-9.581-10.3075-5.958 0-9.821 4.1861-9.821 10.3075 0 6.3609 3.863 10.547 9.821 10.547 5.878 0 9.581-4.1861 9.581-10.547z" fill="#55575b"/><path d="m250.445 69.0412c4.43 0 7.65-1.7718 9.582-3.6234l4.752 4.9922c-3.14 3.1405-7.49 5.475-14.25 5.475-11.596 0-19.082-7.4903-19.082-17.6342 0-10.0641 7.893-17.6341 18.037-17.6341 11.512 0 18.037 8.5357 17.474 20.3716h-27.215c.962 4.9124 4.505 8.0529 10.702 8.0529m8.293-13.6875c-.727-4.5891-3.544-7.9731-9.178-7.9731-5.232 0-8.855 2.8972-9.825 7.9731z" fill="#55575b"/><path d="m275.937 41.343h8.132l-.159 6.2811c2.095-4.4295 6.361-7.0034 11.433-7.0034 7.49 0 12.642 5.3154 12.642 14.4936v20.0484h-8.133v-19.4059c0-4.8326-2.255-7.6499-7.007-7.6499-5.316 0-8.776 3.2204-8.776 8.6954v18.3564h-8.132z" fill="#55575b"/><path d="m316.899 66.623 6.924-4.2659c1.931 3.4638 4.186 5.878 8.212 5.878 4.59 0 7.57-2.1748 7.57-8.5357v-39.2907h8.536v39.4543c0 10.8702-6.524 16.026-15.702 16.026-8.129-.004-12.962-4.1901-15.54-9.266z" fill="#55575b"/><path d="m356.857 64.5319 7.003-3.8668c2.578 4.2659 5.878 7.6498 12.562 7.6498 5.555 0 9.502-2.9769 9.502-7.4862 0-4.7527-3.221-6.8437-9.179-9.5014l-3.623-1.6122c-7.973-3.5436-12.802-7.566-12.802-16.022 0-8.1326 6.282-13.9309 15.38-13.9309 7.247 0 12.159 2.7375 15.459 8.6156l-6.684 4.1062c-2.095-3.6234-4.509-5.3154-8.775-5.3154-4.346 0-7.087 2.6577-7.087 6.3609 0 4.1063 2.334 5.9579 7.889 8.3722l3.544 1.6081c9.341 4.1103 14.334 8.456 14.334 17.2311 0 9.5813-7.491 15.1401-17.794 15.1401-10.391.004-16.669-5.1478-19.729-11.3491" fill="#55575b"/><path d="m436.525.923233v156.589767" stroke="#55575b" stroke-miterlimit="10" stroke-width=".92323"/></g></svg>