<svg viewBox="0 0 1000 160.76031" xmlns="http://www.w3.org/2000/svg"><path d="m471.10761 30.51669c0-16.5784 12.8663-28.78508 28.94938-28.78508 16.08388 0 28.95019 12.20668 28.95019 28.78508s-12.8663 28.78468-28.95019 28.78468c-16.08308 0-28.94938-12.20627-28.94938-28.78468zm48.74456 0c0-11.87727-8.16517-20.78421-19.79518-20.78421-11.6292 0-19.79437 8.90694-19.79437 20.78421 0 11.87646 8.16517 20.78421 19.79437 20.78421 11.63001 0 19.79518-8.90775 19.79518-20.78421z"/><path d="m535.02434 30.35159h8.24813v3.21678c1.56731-2.4742 4.45387-3.95936 8.74264-3.95936 7.34044 0 13.27867 6.26845 13.27867 14.84679 0 8.57753-5.93823 14.84558-13.27867 14.84558-4.28877 0-7.17533-1.48516-8.74264-3.95896v20.70166h-8.24813zm21.77486 14.10421c0-4.61898-2.72226-7.5885-6.92888-7.5885-4.20581 0-6.76296 2.96952-6.76296 7.5885 0 4.61818 2.55715 7.5877 6.76296 7.5877 4.20662 0 6.92888-2.96952 6.92888-7.5877z"/><path d="m585.4989 52.3737c3.62914 0 5.77312-1.40221 7.34044-2.72226l4.94839 4.94839c-2.55635 2.72186-6.26845 4.70154-12.12372 4.70154-9.81544 0-16.08388-6.26804-16.08388-14.84558 0-8.57834 6.68081-14.84679 15.25835-14.84679 9.89759 0 15.50641 7.83576 14.84679 17.65039h-21.52679c.82473 3.13463 3.21597 5.1143 7.34044 5.1143zm5.52587-10.88743c-.57747-2.88656-2.6393-4.94839-6.1863-4.94839-3.38108 0-5.77312 1.73161-6.59786 4.94839h12.78415z"/><path d="m605.04279 30.35159h8.24813v3.62914c1.81457-3.05167 4.86624-4.37172 8.82479-4.37172 6.26845 0 10.63936 4.37172 10.63936 11.87727v17.07252h-8.24732v-16.49504c0-3.13463-1.64946-5.03135-5.03135-5.03135-3.95855 0-6.18549 2.14479-6.18549 6.3506v15.17579h-8.24813v-28.20721z"/><path d="m652.29816 2.4742h9.32012l16.00012 37.69202 15.50641-37.69202h8.90775l-24.24905 56.90932h-.49452l-24.99083-56.90932z"/><path d="m701.61697 17.40233c0-2.96871 2.4742-5.19565 5.19646-5.19565 2.80361 0 5.19565 2.22694 5.19565 5.19565 0 2.96952-2.39204 5.19646-5.19565 5.19646-2.72226 0-5.19646-2.22694-5.19646-5.19646zm1.07199 12.94926h8.24813v28.2072h-8.24813z"/><path d="m715.22424 53.69295 5.19565-4.61898c1.97968 2.39204 4.53683 3.54699 7.34124 3.54699 2.96871 0 4.12366-.90769 4.12366-2.06183 0-1.32005-.82473-1.89753-5.44371-2.88737-5.85608-1.2371-9.32012-3.95855-9.32012-9.15501 0-5.27861 4.04151-8.90775 10.39211-8.90775 4.45387 0 7.5885 1.40221 10.39291 3.8764l-4.37172 5.03135c-1.40221-1.40221-3.46404-2.30909-5.77312-2.30909-2.14479 0-3.21678.90688-3.21678 1.97968 0 1.40221 1.07199 1.89672 5.77312 2.80361 6.3506 1.2379 9.40227 4.37172 9.40227 8.99071 0 5.69097-4.0407 9.31971-11.79431 9.31971-4.70113 0-9.32012-1.89753-12.70119-5.60842z"/><path d="m744.41927 47.4245v-17.07291h8.24813v16.49544c0 3.13463 1.64946 5.03135 5.03135 5.03135 3.95855 0 6.18549-2.14398 6.18549-6.3506v-15.1762h8.24813v28.2072h-8.24813v-3.62874c-1.81457 3.05127-4.86624 4.37132-8.82479 4.37132-6.26845 0-10.64017-4.37132-10.64017-11.87687z"/><path d="m790.27485 36.53788c-2.96952 0-5.1135 1.15414-6.76296 3.05167l-5.03135-4.61898c3.13382-3.54699 7.25829-5.36156 12.28883-5.36156 8.00087 0 12.94926 4.12447 12.94926 12.45474v16.49504h-8.24813v-2.55675c-1.89672 2.22653-4.61818 3.29933-7.91791 3.29933-5.69097 0-10.47426-2.80441-10.47426-9.40267 0-5.52587 4.86624-8.24732 11.05173-8.24732h7.34044c-.08215-3.79425-2.22694-5.1135-5.19565-5.1135zm-1.73242 10.72152c-2.14398 0-3.29893 1.0728-3.29893 2.72226 0 1.56651 1.07199 2.72145 3.79425 2.72145 3.71129 0 6.43275-1.97968 6.43275-4.28877v-1.15495h-6.92807z"/><path d="m810.23191 0h8.24732v58.55879h-8.24732z"/><path d="m824.3337 17.40233c0-2.96871 2.4742-5.19565 5.19646-5.19565 2.80361 0 5.19565 2.22694 5.19565 5.19565 0 2.96952-2.39204 5.19646-5.19565 5.19646-2.72226 0-5.19646-2.22694-5.19646-5.19646zm1.07199 12.94926h8.24813v28.2072h-8.24813z"/><path d="m838.35334 58.22857 13.11356-21.03107h-11.21684v-6.84592h23.83669v.33021l-13.03221 21.03147h12.28963v6.84552h-24.99083z"/><path d="m880.08607 36.53788c-2.96952 0-5.1135 1.15414-6.76296 3.05167l-5.03135-4.61898c3.13382-3.54699 7.25829-5.36156 12.28883-5.36156 8.00087 0 12.94926 4.12447 12.94926 12.45474v16.49504h-8.24813v-2.55675c-1.89672 2.22653-4.61818 3.29933-7.91791 3.29933-5.69097 0-10.47426-2.80441-10.47426-9.40267 0-5.52587 4.86624-8.24732 11.05173-8.24732h7.34044c-.08215-3.79425-2.22694-5.1135-5.19565-5.1135zm-1.73242 10.72152c-2.14398 0-3.29893 1.0728-3.29893 2.72226 0 1.56651 1.07199 2.72145 3.79425 2.72145 3.71129 0 6.43275-1.97968 6.43275-4.28877v-1.15495h-6.92807z"/><path d="m898.1456 37.19751v-6.84592h3.29973v-18.39298h8.24732v18.39298h6.59866v6.84592h-6.59866v11.4641c0 2.88656.90769 3.54699 2.39204 3.54699.98984 0 1.81457-.49532 2.4742-.98984l3.21678 5.77272c-1.40221 1.15495-3.62914 2.30989-7.09318 2.30989-5.36076 0-9.23716-2.6393-9.23716-10.47466v-11.6292z"/><path d="m921.07299 17.40233c0-2.96871 2.4742-5.19565 5.19565-5.19565 2.80441 0 5.19646 2.22694 5.19646 5.19565 0 2.96952-2.39204 5.19646-5.19646 5.19646-2.72145 0-5.19565-2.22694-5.19565-5.19646zm1.07199 12.94926h8.24732v28.2072h-8.24732z"/><path d="m935.99951 44.45579c0-8.57834 6.76296-14.84679 15.42345-14.84679 8.65969 0 15.42345 6.26845 15.42345 14.84679 0 8.57753-6.76377 14.84558-15.42345 14.84558-8.66049 0-15.42345-6.26804-15.42345-14.84558zm22.35152 0c0-4.53683-2.6393-7.83576-6.92807-7.83576s-6.92807 3.29893-6.92807 7.83576c0 4.53603 2.6393 7.83495 6.92807 7.83495s6.92807-3.29893 6.92807-7.83495z"/><path d="m972.28691 30.35159h8.24813v3.62914c1.81457-3.05167 4.86624-4.37172 8.8256-4.37172 6.26764 0 10.63936 4.37172 10.63936 11.87727v17.07252h-8.24813v-16.49504c0-3.13463-1.64946-5.03135-5.03054-5.03135-3.95936 0-6.1863 2.14479-6.1863 6.3506v15.17579h-8.24813v-28.20721z"/><path d="m473.16984 115.23253c.08255-16.74351 12.37178-28.70212 28.2076-28.70212 8.74264 0 16.49544 3.79344 21.77405 10.227l-1.97928 1.48436c-4.70154-5.85608-11.62961-9.32012-19.79478-9.32012-14.51617 0-25.48575 11.21764-25.48575 26.31088s11.13428 26.31008 25.98026 26.31008c8.8252 0 16.24859-3.95855 20.94972-10.227l1.97928 1.48436c-5.27861 6.92888-13.52633 11.13469-22.929 11.13469-16.16563 0-28.78468-11.95942-28.70212-28.70212z"/><path d="m530.24145 130.16066c0-7.7528 6.02078-13.77318 13.52633-13.77318s13.52633 6.02038 13.52633 13.77318c0 7.75361-6.02078 13.77399-13.52633 13.77399s-13.52633-6.02038-13.52633-13.77399zm24.49591 0c0-6.59786-4.61898-11.6292-10.96958-11.6292-6.351 0-10.96958 5.03135-10.96958 11.6292 0 6.59866 4.61858 11.63001 10.96958 11.63001 6.3506 0 10.96958-5.03135 10.96958-11.63001z"/><path d="m564.79724 84.71584h2.4742v58.55919h-2.4742z"/><path d="m577.24997 84.71584h2.4742v58.55919h-2.4742z"/><path d="m607.02287 126.61448c0-5.77393-2.80441-8.08302-7.34084-8.08302-3.79385 0-6.3506 1.40221-8.33028 4.53603l-1.81457-1.2371c2.4746-3.71129 5.69097-5.44291 10.14485-5.44291 5.93863 0 9.81504 3.21597 9.81504 10.06189v16.82566h-2.4742v-3.46404c-1.73202 2.39204-4.86624 4.12366-8.9903 4.12366-5.69097 0-10.2274-2.80441-10.2274-8.33028s4.86624-8.00006 10.30995-8.00006h8.90775v-.98984zm-8.57794 3.13382c-4.28877 0-8.16517 1.48516-8.16517 5.85608 0 4.28877 3.38148 6.10334 8.08261 6.10334 4.28917 0 8.66049-2.22694 8.66049-7.17533v-4.78409h-8.57794z"/><path d="m621.0413 137.58406v5.69097h-2.4742v-58.55919h2.4742v38.02224c2.22694-4.12366 6.02078-6.3506 10.72232-6.3506 7.7528 0 13.44378 6.02038 13.44378 13.77318 0 7.75361-5.69097 13.77399-13.44378 13.77399-4.70154 0-8.49538-2.22694-10.72232-6.3506zm21.60935-7.42339c0-6.68001-4.45387-11.54625-10.88703-11.54625-6.43355 0-10.88743 4.86624-10.88743 11.54625 0 6.68081 4.45387 11.54705 10.88743 11.54705 6.43315 0 10.88703-4.86624 10.88703-11.54705z"/><path d="m650.23633 130.16066c0-7.7528 6.02078-13.77318 13.52633-13.77318s13.52633 6.02038 13.52633 13.77318c0 7.75361-6.02078 13.77399-13.52633 13.77399s-13.52633-6.02038-13.52633-13.77399zm24.49591 0c0-6.59786-4.61898-11.6292-10.96958-11.6292-6.351 0-10.96958 5.03135-10.96958 11.6292 0 6.59866 4.61858 11.63001 10.96958 11.63001 6.3506 0 10.96958-5.03135 10.96958-11.63001z"/><path d="m684.54526 117.0471h2.4742v4.61898c1.64946-3.21678 4.45387-5.27861 7.83536-5.27861 1.81457 0 2.72186.1643 4.04151.90688l-.90729 2.06183c-.82473-.49452-1.73202-.65962-3.29893-.65962-4.12406 0-7.67065 4.04151-7.67065 9.40227v15.1762h-2.4742z"/><path d="m720.91683 126.61448c0-5.77393-2.80441-8.08302-7.34084-8.08302-3.79385 0-6.3506 1.40221-8.33028 4.53603l-1.81457-1.2371c2.4746-3.71129 5.69097-5.44291 10.14485-5.44291 5.93863 0 9.81504 3.21597 9.81504 10.06189v16.82566h-2.4742v-3.46404c-1.73202 2.39204-4.86624 4.12366-8.9903 4.12366-5.69097 0-10.2274-2.80441-10.2274-8.33028s4.86624-8.00006 10.30995-8.00006h8.90775v-.98984zm-8.57794 3.13382c-4.28877 0-8.16517 1.48516-8.16517 5.85608 0 4.28877 3.38148 6.10334 8.08261 6.10334 4.28917 0 8.66049-2.22694 8.66049-7.17533v-4.78409h-8.57794z"/><path d="m730.06901 119.19108v-2.14398h3.7117v-15.75367h2.4742v15.75367h6.84552v2.14398h-6.84552v18.39297c0 2.4742.90729 4.12366 3.29893 4.12366 1.31965 0 2.55715-.65962 3.38188-1.31925l1.2371 1.81457c-1.15454 1.07199-2.88696 1.73161-4.61898 1.73161-3.62874 0-5.77312-2.39204-5.77312-6.02038v-18.72319h-3.7117z"/><path d="m750.35629 103.27311c0-1.15495.98984-2.06183 2.06183-2.06183 1.07239 0 2.06183.90688 2.06183 2.06183s-.98944 2.06183-2.06183 2.06183c-1.07199 0-2.06183-.90688-2.06183-2.06183zm.82473 13.77399h2.4742v26.22793h-2.4742z"/><path d="m761.15956 130.16066c0-7.7528 6.02078-13.77318 13.52633-13.77318s13.52633 6.02038 13.52633 13.77318c0 7.75361-6.02078 13.77399-13.52633 13.77399s-13.52633-6.02038-13.52633-13.77399zm24.49591 0c0-6.59786-4.61898-11.6292-10.96958-11.6292-6.351 0-10.96958 5.03135-10.96958 11.6292 0 6.59866 4.61858 11.63001 10.96958 11.63001 6.3506 0 10.96958-5.03135 10.96958-11.63001z"/><path d="m795.46808 117.0471h2.4742v4.94839c1.73202-3.46404 5.44371-5.60802 9.73248-5.60802 5.69097 0 10.2274 3.29893 10.2274 10.55721v16.33034h-2.4746v-15.91797c0-6.10334-2.88656-8.74264-7.83536-8.74264-5.60842 0-9.64993 3.71129-9.64993 9.73168v14.92894h-2.4742v-26.22793z"/><path d="m841.48676 131.72798c3.21678 6.10334 8.9903 9.81463 16.24819 9.81463 8.9903 0 14.1038-4.70113 14.1038-11.6292 0-6.84592-3.62874-10.47426-11.87687-14.43361l-5.1135-2.4742c-7.91791-3.8764-12.20668-6.92807-12.20668-14.10421 0-7.50554 6.02078-12.37098 13.52633-12.37098 6.76337 0 11.29939 2.4742 14.68128 7.9171l-1.97968 1.15495c-2.88656-4.61898-6.84552-6.76296-12.7016-6.76296-6.43315 0-10.96958 4.28877-10.96958 10.06189 0 6.10334 3.38148 8.33028 10.80447 11.95942l5.03135 2.475c9.40267 4.61818 13.36162 8.9899 13.36162 16.5776 0 8.33028-6.18589 14.02125-16.66095 14.02125-8.82479 0-15.01069-4.45387-18.47512-10.96958z"/><path d="m882.97102 117.0471h2.4742v5.69097c2.22694-4.12366 6.02038-6.3506 10.72232-6.3506 7.7528 0 13.44378 6.02038 13.44378 13.77318 0 7.75361-5.69097 13.77399-13.44378 13.77399-4.70194 0-8.49538-2.22694-10.72232-6.3506v23.17626h-2.4742v-43.71321zm24.08395 13.11356c0-6.68001-4.45387-11.54625-10.88743-11.54625s-10.88743 4.86624-10.88743 11.54625c0 6.68081 4.45387 11.54705 10.88743 11.54705s10.88743-4.86624 10.88743-11.54705z"/><path d="m934.43542 126.61448c0-5.77393-2.80441-8.08302-7.34044-8.08302-3.79425 0-6.3514 1.40221-8.33108 4.53603l-1.81377-1.2371c2.4742-3.71129 5.69097-5.44291 10.14485-5.44291 5.93823 0 9.81463 3.21597 9.81463 10.06189v16.82566h-2.4742v-3.46404c-1.73161 2.39204-4.86624 4.12366-8.9899 4.12366-5.69097 0-10.2278-2.80441-10.2278-8.33028s4.86624-8.00006 10.30995-8.00006h8.90775v-.98984zm-8.57753 3.13382c-4.28957 0-8.16517 1.48516-8.16517 5.85608 0 4.28877 3.38108 6.10334 8.08221 6.10334 4.28877 0 8.66049-2.22694 8.66049-7.17533v-4.78409z"/><path d="m943.75231 130.16066c0-7.7528 5.77312-13.77318 13.27867-13.77318 4.04151 0 7.25829 1.2371 9.81544 3.95855l-1.73242 1.48436c-1.97887-2.22694-4.61898-3.29893-8.08302-3.29893-6.3506 0-10.72232 5.03135-10.72232 11.6292 0 6.59866 4.37172 11.63001 10.64017 11.63001 3.8764 0 7.01103-1.48516 8.9899-3.79425l1.73242 1.48436c-2.4742 2.96952-6.26925 4.45387-10.72232 4.45387-7.42339 0-13.19652-6.02038-13.19652-13.77399z"/><path d="m985.73149 141.79067c4.70194 0 7.34044-1.64946 9.40227-4.20662l1.64946 1.48436c-2.39124 3.05167-6.02038 4.86624-11.05173 4.86624-8.08302 0-13.77399-6.02038-13.77399-13.77399 0-7.7528 5.93904-13.77318 13.19732-13.77318 7.7528 0 12.78335 5.85527 12.94845 14.26851h-23.58862c.24726 6.92807 5.03135 11.13469 11.21684 11.13469zm9.81463-13.27947c-.65882-5.60802-3.8756-9.97974-10.3913-9.97974-5.77393 0-9.89839 4.20662-10.55721 9.97974z"/><path d="m107.02587 49.75501-52.98619-30.59136-.35117-.20352-.35117.20352-52.70285 30.42775-.28333.16361-.35117.20352v61.99679l.35117.20352 52.98619 30.58737.35117.20352.35117-.20352 52.27986-30.18433.70234-.40305.35516-.20352v-61.99678zm-58.64076-22.8657-12.95723 22.43872h-25.91048zm-15.08418 26.12995-6.07757 10.52701-18.23271-10.527h24.31027zm-4.72877 15.56304 21.42912 12.37063-21.42912 12.37063-7.14304-12.37063zm-3.19641-1.84362-6.07757 10.52701-12.15514-21.054 18.23271 10.527zm-21.16176-8.22446 12.95723 22.43872-12.95723 22.43872zm15.08418 26.12995 6.07757 10.52701-18.23271 10.52301zm7.92119 13.71943 6.07757 10.52701h-24.30628l18.22872-10.52701zm-17.70197 14.21425h25.91048l12.95723 22.43872-38.8677-22.43873zm42.32351 21.05401-12.15514-21.05401h12.15514zm0-24.74126h-14.28608l-7.14304-12.37063 21.42912-12.37063v24.74125zm0-31.13008-21.42912-12.37063 7.14304-12.37063h14.28608v24.74125zm0-28.43249h-12.15514l12.15514-21.05401zm30.15639 17.41066 18.23271-10.527-12.15513 21.05401-6.07757-10.52701zm3.94663 14.21425-7.14304 12.37063-21.42513-12.37063 21.42513-12.37063zm-5.79025-17.40667-6.07757-10.527h24.31028zm17.70197-14.21824h-25.91048l-12.95723-22.43872zm-42.3235-21.05002 12.15514 21.05401h-12.15513v-21.05401zm0 24.74125h14.28608l7.14304 12.37063-21.42513 12.37063v-24.74125h-.00399zm0 31.13008 21.42513 12.37063-7.14304 12.37063h-14.28608v-24.74125h.00399zm0 28.4285h12.15514l-12.15513 21.05401v-21.05401zm3.45579 22.44271 12.95324-22.43872h25.91047zm15.08818-26.12995 6.07757-10.52701 18.23271 10.52701zm7.92119-13.71942 6.07757-10.52701 12.15514 21.05002zm21.16175 8.22447-12.95723-22.43872 12.95723-22.43872z"/><path d="m121.61123 98.89434h25.31988v2.29854h-22.6981v19.12259h20.59111v2.36239h-20.59111v19.69723h-2.62178z"/><path d="m151.34463 129.26622c0-7.48223 6.00973-13.55581 13.61966-13.55581s13.49196 6.07358 13.49196 13.55581-5.88203 13.61966-13.49196 13.61966-13.61966-6.13743-13.61966-13.61966m24.5537 0c0-6.45667-4.41352-11.31713-10.93403-11.31713s-11.06173 4.86046-11.06173 11.31712 4.54122 11.38097 11.06173 11.38097c6.52052.00001 10.93403-4.92429 10.93403-11.38096"/><path d="m185.308 132.71802v-16.43298h2.49408v16.04989c0 5.30739 2.49408 8.31226 7.48223 8.31226 5.62664 0 9.58923-3.77105 9.58923-9.78078v-14.57739h2.49408v26.09005h-2.49408l.06384-5.75434c-1.7279 3.89874-5.30739 6.32897-9.91246 6.32897-5.81419-.00397-9.71692-3.83887-9.71692-10.23568"/><path d="m214.14352 116.28504h2.49408l-.06384 5.81818c1.7279-3.96259 5.37125-6.39282 9.97631-6.39282 5.81819 0 9.72091 3.89874 9.72091 10.3594v16.30529h-2.49408v-15.85834c0-5.37124-2.49408-8.50381-7.54607-8.50381-5.62663 0-9.59321 3.7072-9.59321 9.78476v14.57739h-2.49408v-26.09005z"/><path d="m243.05487 129.26622c0-7.67378 5.43509-13.55581 12.91733-13.55581 5.30739 0 9.14228 2.87716 11.06172 6.77592v-26.2816h2.49408v46.17037h-2.49408l.1277-6.52451c-1.8556 4.03043-6.14142 7.0353-11.18942 7.0353-7.48223 0-12.91733-5.94589-12.91733-13.61966m24.17061 0c0-6.45667-4.34968-11.31713-10.93405-11.31713-6.46066 0-10.61479 4.86046-10.61479 11.31712s4.15812 11.38097 10.61479 11.38097c6.58836.00001 10.93405-4.92429 10.93405-11.38096"/><path d="m294.97558 126.00595c0-5.88602-2.68562-8.12072-6.97143-8.12072-3.96259 0-6.6482 1.66405-8.50381 4.47737l-1.78775-1.28095c2.17085-3.38795 5.88203-5.37124 10.35941-5.37124 5.37125 0 9.39768 3.26026 9.39768 10.04016v16.62453h-2.49408l.1277-4.02644c-1.66404 2.49408-4.54122 4.53722-9.01858 4.53722-5.94589 0-9.84861-2.74948-9.84861-7.99302 0-5.17971 4.54122-7.60993 9.52937-7.60993h9.20614v-1.27697h.00395zm-8.88688 3.32411c-3.96259 0-7.35453 1.53635-7.35453 5.49894s2.62178 5.81818 7.60993 5.81818c4.34968 0 8.6355-2.55793 8.6355-6.58437v-4.73276h-8.8909z"/><path d="m308.58329 135.4675v-17.07146h-4.09029v-2.11099h4.09029v-9.14229h2.49408v9.14229h7.54607v2.11099h-7.54607v17.00761c0 3.83489 1.34081 5.24356 3.51965 5.24356 2.30254 0 3.19641-.89387 4.15812-1.91944l1.59621 1.53635c-1.27697 1.46851-2.81331 2.62178-5.75433 2.62178-3.32811-.00001-6.01372-2.111-6.01372-7.4184"/><path d="m327.13523 105.03176c0-1.21312 1.02557-2.11098 2.11098-2.11098 1.08941 0 2.11098.89787 2.11098 2.11098 0 1.27697-1.02557 2.11098-2.11098 2.11098s-2.11098-.83401-2.11098-2.11098m.89787 11.25328h2.49408v26.09005h-2.49408z"/><path d="m338.03335 129.26622c0-7.48223 6.00973-13.55581 13.61966-13.55581s13.49196 6.07358 13.49196 13.55581-5.88203 13.61966-13.49196 13.61966-13.61966-6.13743-13.61966-13.61966m24.55369 0c0-6.45667-4.41352-11.31713-10.93405-11.31713-6.5245 0-11.06172 4.86046-11.06172 11.31712s4.53722 11.38097 11.06172 11.38097c6.52053.00001 10.93405-4.92429 10.93405-11.38096"/><path d="m372.2521 116.28504h2.49408l-.06384 5.81818c1.7279-3.96259 5.37125-6.39282 9.97631-6.39282 5.81819 0 9.72091 3.89874 9.72091 10.3594v16.30529h-2.49408v-15.85834c0-5.37124-2.49408-8.50381-7.54607-8.50381-5.62663 0-9.58924 3.7072-9.58924 9.78476v14.57739h-2.49408v-26.09005z"/><path d="m121.61123 47.7837c0-16.34519 12.56218-28.10127 28.2609-28.10127 15.6229 0 28.18108 11.75609 28.18108 28.10127s-12.56218 28.10127-28.18108 28.10127c-15.69872 0-28.2609-11.75609-28.2609-28.10127m47.74664 0c0-11.67628-8.05288-20.45144-19.48574-20.45144s-19.56554 8.77516-19.56554 20.45144 8.13269 20.45144 19.56554 20.45144 19.48574-8.77517 19.48574-20.45144"/><path d="m186.90819 41.34299h8.21249l-.23943 6.28108c2.17085-4.18606 6.20128-7.00337 11.99552-7.00337 8.69534 0 15.7027 7.3266 15.7027 17.55432 0 10.22372-7.08718 17.71394-15.86234 17.71394-5.63462 0-9.66505-2.7375-11.59646-6.52052v22.8697h-8.21249v-50.89515zm27.2952 16.82804c0-6.12146-3.70322-10.30753-9.58125-10.30753-5.95785 0-9.82068 4.18606-9.82068 10.30753 0 6.3609 3.86282 10.54695 9.82068 10.54695 5.87803 0 9.58125-4.18606 9.58125-10.54695"/><path d="m250.44533 69.04122c4.42947 0 7.64983-1.77179 9.58125-3.6234l4.7527 4.99214c-3.14054 3.14054-7.49022 5.475-14.25017 5.475-11.59646 0-19.08269-7.49022-19.08269-17.63413 0-10.0641 7.89327-17.63413 18.03718-17.63413 11.51265 0 18.03718 8.53573 17.4745 20.37163h-27.21538c.96173 4.91234 4.50532 8.05288 10.70261 8.05288m8.2923-13.6875c-.72628-4.5891-3.54359-7.97307-9.17821-7.97307-5.23157 0-8.85498 2.89712-9.82467 7.97307z"/><path d="m275.93681 41.34299h8.13269l-.15963 6.28108c2.09503-4.42948 6.3609-7.00337 11.43286-7.00337 7.49022 0 12.64198 5.31538 12.64198 14.49359v20.04839h-8.13269v-19.40592c0-4.83253-2.25466-7.64983-7.00736-7.64983-5.31538 0-8.77516 3.22035-8.77516 8.69535v18.35641h-8.13269z"/><path d="m316.89953 66.62296 6.92355-4.26587c1.93142 3.46377 4.18606 5.87804 8.21251 5.87804 4.5891 0 7.57001-2.17483 7.57001-8.53573v-39.2907h8.53574v39.45431c0 10.87019-6.5245 16.02595-15.7027 16.02595-8.1287-.00399-12.96122-4.19005-15.5391-9.266"/><path d="m356.85665 64.53193 7.00337-3.86682c2.57789 4.26587 5.87803 7.64983 12.56216 7.64983 5.5548 0 9.50144-2.97693 9.50144-7.48622 0-4.75272-3.22036-6.84375-9.17821-9.50144l-3.6234-1.61217c-7.97306-3.54358-12.80161-7.56603-12.80161-16.02196 0-8.13269 6.28108-13.93092 15.37947-13.93092 7.24678 0 12.15912 2.7375 15.45929 8.61554l-6.68413 4.10625c-2.09503-3.6234-4.50929-5.31538-8.77516-5.31538-4.34569 0-7.08718 2.65769-7.08718 6.3609 0 4.10625 2.33445 5.95785 7.88927 8.37212l3.54359 1.60818c9.34181 4.11024 14.33396 8.45592 14.33396 17.23109 0 9.58125-7.49022 15.14005-17.79376 15.14005-10.39127.00399-16.66838-5.14778-19.72911-11.34905"/><path d="m436.52502.92323v156.5896" stroke="#55575b" stroke-miterlimit="10" stroke-width=".92323"/></svg>